<?xml version="1.0" standalone="no"?>
<!DOCTYPE svg PUBLIC "-//W3C//DTD SVG 20010904//EN"
 "http://www.w3.org/TR/2001/REC-SVG-20010904/DTD/svg10.dtd">
<svg version="1.0" xmlns="http://www.w3.org/2000/svg"
 width="657.000000pt" height="380.000000pt" viewBox="0 0 657.000000 380.000000"
 preserveAspectRatio="xMidYMid meet">

<g transform="translate(0.000000,380.000000) scale(0.100000,-0.100000)"
fill="#000000" stroke="none">
<path d="M2980 3511 c-141 -20 -290 -90 -362 -169 -109 -122 -222 -336 -264
-502 -30 -119 -6 -347 45 -419 12 -16 21 -38 21 -49 0 -12 5 -33 11 -49 6 -15
14 -46 19 -68 4 -22 20 -87 34 -145 15 -58 31 -121 35 -140 5 -19 17 -78 26
-130 33 -187 76 -290 175 -421 35 -47 40 -59 35 -89 -10 -57 -48 -84 -181
-129 -98 -34 -129 -40 -162 -35 -37 6 -44 3 -74 -26 -34 -34 -170 -86 -191
-73 -6 4 -1 -9 10 -28 11 -19 24 -44 28 -56 5 -20 3 -23 -20 -23 -40 0 -62 16
-91 68 -73 126 -167 204 -299 248 -92 31 -93 32 -44 65 24 16 41 29 36 29 -4
0 -26 -12 -49 -27 -22 -16 -52 -36 -67 -45 l-26 -18 26 0 c62 0 264 -96 309
-146 16 -19 30 -39 30 -45 0 -5 -15 -17 -34 -26 -38 -18 -55 -14 -186 44 -129
57 -108 55 -211 22 -52 -16 -104 -29 -116 -29 -22 0 -23 -3 -23 -107 0 -103 1
-106 19 -89 18 16 20 15 50 -31 18 -26 62 -81 99 -122 37 -41 75 -87 84 -102
30 -48 205 -81 241 -44 14 13 13 21 -3 72 -23 76 -59 166 -71 177 -5 6 -9 27
-9 48 0 31 4 38 19 38 30 0 51 -11 51 -27 0 -31 33 -75 66 -89 50 -21 74 -6
74 46 0 64 21 56 96 -35 30 -38 34 -48 24 -60 -7 -9 -10 -18 -7 -21 9 -10 84
34 110 66 14 16 32 30 39 30 28 0 138 -42 138 -53 0 -15 -30 -117 -45 -153 -7
-17 -28 -42 -45 -55 -18 -13 -47 -39 -64 -58 -87 -97 -89 -98 -193 -116 -54
-9 -116 -24 -138 -33 -50 -19 -120 -70 -135 -97 -10 -19 -21 -20 -190 -19
-132 0 -183 4 -194 13 -10 9 -16 9 -16 3 0 -25 43 -31 198 -29 88 1 163 -1
167 -5 11 -10 -5 -69 -17 -62 -5 3 -78 10 -161 14 -84 4 -160 11 -169 15 -10
4 -18 3 -18 -2 0 -21 89 -37 218 -38 73 -1 134 -4 136 -6 2 -2 1 -19 -1 -37
-8 -48 -38 -57 -133 -41 -41 7 -104 21 -140 31 -84 23 -98 22 -35 -3 143 -59
142 -59 758 -59 l567 0 0 55 c0 44 4 57 18 62 9 4 36 19 59 35 23 15 44 28 47
28 2 0 41 22 85 50 44 27 83 50 87 50 3 0 24 13 47 29 41 28 215 131 222 131
2 0 6 -24 8 -52 l4 -53 -1 57 c-1 54 1 58 30 75 61 35 180 106 231 139 29 19
55 34 57 34 2 0 41 22 85 50 l80 50 0 -138 c0 -75 5 -186 11 -247 10 -104 46
-345 52 -350 2 -1 281 0 621 3 l617 5 -2 590 -3 590 -110 23 c-60 12 -144 30
-185 39 -112 25 -210 46 -255 55 -189 36 -337 81 -547 164 -65 25 -121 46
-125 46 -4 0 -21 -35 -37 -78 -29 -78 -95 -198 -138 -247 -12 -15 -54 -52 -93
-81 -139 -106 -153 -119 -169 -151 -10 -21 -23 -33 -35 -33 -11 0 -23 -5 -26
-10 -3 -5 -10 -10 -16 -10 -5 0 15 36 43 79 35 51 56 75 61 68 5 -7 6 -3 2 9
-6 24 3 56 15 49 4 -3 11 2 14 11 3 8 2 12 -4 9 -6 -4 -5 4 1 19 7 14 16 24
22 23 5 -1 12 4 15 12 3 9 0 11 -9 7 -8 -4 -4 1 9 10 12 9 22 22 22 28 0 7 44
54 99 104 97 89 116 117 153 217 30 83 20 83 -32 -1 -51 -84 -90 -121 -156
-150 -66 -28 -68 -30 -89 -69 -29 -55 -136 -149 -186 -164 -67 -20 -178 -25
-271 -11 -68 9 -90 17 -106 35 -30 35 -55 75 -50 80 3 3 25 9 49 14 24 5 78
19 119 31 80 24 123 23 233 -4 41 -10 57 -11 54 -3 -2 6 -21 15 -42 19 -83 18
-85 49 -9 112 31 25 55 46 53 46 -2 0 -38 -9 -79 -20 -88 -23 -248 -26 -324
-7 l-48 13 43 21 c88 43 141 54 275 54 71 1 134 0 139 -1 21 -5 35 1 35 14 0
8 -14 17 -31 21 -17 4 -56 18 -86 32 -60 28 -152 35 -190 15 -12 -7 -35 -9
-52 -6 -25 5 -29 9 -20 20 16 19 196 18 269 -1 80 -22 100 -20 100 9 0 13 -6
28 -12 34 -45 36 -155 79 -217 84 l-33 3 56 28 c54 28 60 35 68 92 2 15 18 1
67 -60 66 -82 98 -118 89 -100 -3 6 -19 39 -36 75 -37 75 -132 180 -163 180
l-20 0 20 -25 c23 -31 35 -77 26 -105 -6 -18 -8 -19 -22 -4 -27 27 -80 11
-121 -36 -20 -22 -42 -40 -49 -40 -29 0 -95 42 -114 73 -17 27 -19 41 -13 87
13 92 11 397 -3 411 -15 15 -217 49 -295 49 -95 0 -143 -31 -167 -111 -32
-109 -34 -95 -15 122 4 52 1 115 -11 199 -24 169 -17 235 34 342 31 65 97 157
113 158 127 9 183 22 260 59 95 46 97 46 153 26 62 -22 76 -19 166 41 59 38
91 54 107 51 22 -4 23 -2 17 29 -4 26 -3 34 9 34 19 0 31 -39 17 -53 -15 -15
-14 -27 3 -27 8 0 18 14 22 33 6 30 7 31 17 10 l10 -22 18 22 18 22 1 -28 c0
-16 -5 -38 -11 -49 -10 -18 -7 -24 19 -45 39 -30 216 -210 238 -241 18 -26 20
-79 4 -132 -5 -19 -10 -73 -10 -119 l0 -83 63 -87 c110 -152 101 -117 107
-373 3 -124 8 -230 13 -234 4 -4 15 0 25 10 15 15 15 16 1 11 -21 -8 -29 20
-29 98 l0 57 25 -16 c29 -19 30 -17 40 61 4 27 13 58 21 69 13 19 14 15 14
-35 0 -109 -9 -144 -43 -164 -17 -10 -26 -20 -20 -22 7 -3 23 3 37 13 34 21
33 8 -1 -30 -16 -17 -19 -24 -8 -16 29 22 39 41 41 80 5 122 18 251 26 256 25
15 -8 144 -37 144 -8 0 -23 -10 -35 -22 -28 -30 -25 -6 5 42 28 45 56 63 82
53 15 -6 16 -4 6 8 -10 12 -10 22 -1 47 30 78 -78 383 -188 532 -42 57 -142
139 -234 192 -201 114 -269 137 -440 142 -69 3 -150 1 -180 -3z m240 -157 c0
-35 -28 -37 -45 -4 -21 41 -18 50 5 15 21 -32 26 -23 11 18 -6 14 -7 28 -3 31
8 9 31 -34 32 -60z m65 26 c7 -22 6 -23 -9 -11 -9 7 -16 23 -16 34 0 26 15 12
25 -23z m27 5 c3 -14 2 -25 -2 -25 -9 0 -20 25 -20 46 0 23 17 7 22 -21z m-67
-20 c4 -21 3 -25 -3 -15 -15 24 -26 67 -14 55 6 -5 13 -23 17 -40z m-235 -25
c12 -16 18 -30 13 -30 -17 0 -53 31 -53 46 0 23 17 16 40 -16z m86 13 c13 -17
14 -17 8 0 -3 9 -2 17 4 17 10 0 22 -33 22 -64 0 -19 0 -19 -13 -1 -13 17 -14
17 -20 -4 -7 -29 -27 -27 -27 4 0 14 -9 34 -20 45 l-20 20 26 0 c15 0 33 -8
40 -17z m84 -46 c0 -16 -20 5 -36 36 l-15 32 25 -30 c14 -16 26 -34 26 -38z
m310 -7 c-6 -11 -15 -20 -21 -20 -21 0 -20 31 3 62 l23 33 3 -27 c2 -15 -2
-36 -8 -48z m-540 17 c0 -24 -3 -28 -10 -17 -13 20 -13 63 0 55 6 -3 10 -21
10 -38z m617 16 c-2 -10 -8 -26 -12 -36 -6 -14 -4 -16 11 -11 16 6 15 3 -4
-18 -20 -22 -26 -24 -48 -14 -30 14 -30 21 2 63 27 35 60 46 51 16z m-707 -63
c0 -5 -5 -10 -11 -10 -5 0 -7 5 -4 10 3 6 8 10 11 10 2 0 4 -4 4 -10z m761
-14 c12 6 11 5 0 -9 -12 -15 -12 -17 4 -11 13 5 16 4 11 -4 -11 -18 30 -15 59
4 33 21 32 6 -2 -30 l-27 -29 27 5 c15 3 30 2 32 -2 7 -12 -42 -40 -70 -40
-27 0 -31 10 -14 42 11 20 10 20 -11 5 -21 -15 -25 -14 -56 10 -19 14 -34 29
-34 34 0 15 54 38 61 27 4 -6 13 -7 20 -2z m86 -127 c-21 -11 -46 -19 -55 -17
-10 2 1 11 28 20 62 22 73 21 27 -3z m53 -4 c-10 -12 -10 -15 1 -16 8 0 1 -7
-16 -14 l-30 -14 45 -1 45 -2 -30 -13 c-16 -7 -41 -16 -53 -20 -21 -6 -23 -4
-17 15 6 19 4 21 -13 16 -15 -5 -20 -3 -18 10 2 10 22 25 47 35 55 22 54 22
39 4z m15 -95 c-16 -7 -17 -9 -3 -9 38 -2 27 -21 -11 -21 -29 0 -41 4 -41 14
0 17 15 24 50 25 23 0 23 -1 5 -9z m15 -47 l-25 -5 30 -13 30 -12 -28 -8 c-29
-8 -94 13 -69 22 6 3 10 9 6 14 -3 5 14 8 38 8 28 -1 34 -3 18 -6z m-12 -54
c54 -4 43 -19 -14 -19 -33 0 -44 4 -44 16 0 8 4 13 8 10 5 -3 27 -6 50 -7z
m32 -38 c0 -5 -8 -12 -17 -14 -15 -4 -15 -6 5 -12 12 -4 22 -11 22 -16 0 -5
-10 -9 -22 -10 l-23 0 23 -11 c35 -17 26 -31 -15 -25 -33 6 -35 5 -17 -7 11
-8 29 -16 42 -18 15 -2 19 -7 13 -16 -6 -11 -17 -11 -47 -3 -36 9 -37 9 -19
-5 11 -8 30 -17 43 -21 28 -7 29 -23 2 -23 -29 0 -76 26 -84 46 -8 20 3 82 15
89 4 3 4 17 -1 30 -9 24 -8 25 35 25 25 0 45 -4 45 -9z m5 -194 c72 -13 71
-12 55 -32 -24 -29 -90 -14 -137 32 -18 17 -16 26 5 18 9 -4 44 -12 77 -18z
m87 -69 c-15 -15 -130 -14 -146 2 -7 7 16 10 74 10 66 0 81 -3 72 -12z m55
-15 c-18 -18 -138 -46 -149 -35 -5 5 20 14 54 21 34 7 71 19 82 27 25 17 35 9
13 -13z m-27 -62 c0 -6 -16 -22 -35 -37 -27 -20 -39 -24 -47 -16 -9 9 -8 12 3
12 7 0 28 11 44 25 34 28 35 28 35 16z m55 -102 c4 -12 4 -42 0 -67 -6 -39 -9
-43 -15 -26 -9 23 -48 38 -74 28 -12 -5 -16 0 -16 19 0 17 10 31 33 46 41 26
64 26 72 0z m-1055 -286 c0 -43 -6 -89 -41 -288 -6 -33 -24 -90 -40 -127 -48
-111 -33 -182 45 -208 30 -10 34 -16 45 -67 6 -31 11 -73 11 -93 l0 -37 -83
86 c-160 164 -175 197 -141 297 19 56 17 61 -63 182 -60 92 -62 110 -18 154
25 25 250 147 273 148 8 0 12 -16 12 -47z m32 -203 c2 -22 2 -40 0 -40 -1 0
-14 7 -27 16 -37 24 -33 64 6 64 12 0 18 -10 21 -40z m-535 -808 c18 -11 33
-59 34 -105 1 -23 8 -65 16 -94 12 -44 10 -103 -3 -103 -11 0 -74 71 -88 98
-20 39 -20 77 1 152 17 62 19 65 40 52z"/>
<path d="M3055 2930 c-16 -7 -13 -9 15 -8 19 0 46 4 60 8 21 7 19 8 -15 8 -22
0 -49 -3 -60 -8z"/>
<path d="M3310 2901 c0 -5 24 -17 53 -26 28 -9 61 -20 72 -25 54 -24 98 -40
102 -36 5 4 -132 71 -167 80 -14 4 -33 10 -42 12 -10 3 -18 1 -18 -5z"/>
<path d="M3015 2815 c-81 -15 -122 -29 -109 -37 5 -4 27 0 49 8 22 8 96 17
165 21 106 6 117 8 75 14 -69 10 -99 9 -180 -6z"/>
<path d="M3011 2701 c-19 -3 -36 -12 -39 -20 -3 -9 2 -11 14 -8 27 8 152 27
199 31 22 1 0 3 -50 3 -49 0 -105 -2 -124 -6z"/>
<path d="M3383 2643 c15 -2 37 -2 50 0 12 2 0 4 -28 4 -27 0 -38 -2 -22 -4z"/>
<path d="M3200 2625 c-30 -7 -66 -18 -80 -24 l-25 -12 25 6 c14 3 68 12 120
20 52 9 100 17 105 20 25 9 -96 2 -145 -10z"/>
<path d="M3498 2633 c7 -3 16 -2 19 1 4 3 -2 6 -13 5 -11 0 -14 -3 -6 -6z"/>
<path d="M2635 2615 l-30 -14 30 7 c17 4 57 7 89 6 36 0 52 3 40 7 -31 12 -97
9 -129 -6z"/>
<path d="M2796 2571 c-4 -5 32 -9 83 -8 49 1 84 5 77 9 -16 11 -154 10 -160
-1z"/>
<path d="M4044 2505 c-1 -61 0 -65 8 -32 4 22 4 53 0 70 -7 25 -8 17 -8 -38z"/>
<path d="M2613 2541 c-49 -17 -88 -40 -80 -47 2 -2 28 8 58 22 30 15 71 27 92
27 20 0 37 4 37 8 0 14 -50 9 -107 -10z"/>
<path d="M3305 2520 c-65 -8 -173 -37 -192 -52 -14 -11 26 -116 65 -168 36
-47 60 -66 166 -128 140 -83 190 -104 223 -95 27 7 26 7 -17 15 -59 10 -126
45 -297 155 -14 9 7 12 109 12 l128 1 39 35 c27 25 48 35 71 35 l33 0 -24 19
c-40 30 -71 44 -129 57 l-55 12 56 1 c44 1 64 -5 100 -27 51 -33 84 -29 95 12
14 58 -52 102 -179 116 -90 11 -103 11 -192 0z"/>
<path d="M4022 2385 c-7 -14 -12 -31 -12 -38 1 -7 7 3 16 22 17 39 13 54 -4
16z"/>
<path d="M3998 2240 c-3 -41 -9 -88 -12 -105 -3 -16 1 -10 9 15 9 26 14 71 13
105 l-3 60 -7 -75z"/>
<path d="M3540 2250 c-9 -6 -10 -10 -3 -10 6 0 15 5 18 10 8 12 4 12 -15 0z"/>
<path d="M3354 2226 c24 -20 89 -20 136 0 l35 14 -35 -7 c-47 -9 -89 -9 -125
1 -28 7 -29 7 -11 -8z"/>
<path d="M2236 1815 c-11 -8 -15 -15 -9 -15 7 0 15 5 18 10 3 6 16 10 27 10
19 0 20 -4 15 -62 -5 -53 -10 -67 -35 -88 -16 -14 -45 -38 -64 -55 -19 -16
-50 -51 -68 -77 -18 -27 -36 -48 -39 -48 -3 0 -33 9 -65 20 -33 11 -69 20 -81
20 -21 0 -113 -86 -102 -96 2 -2 16 11 31 31 40 52 60 59 115 44 70 -19 212
-87 246 -117 l30 -27 -30 33 c-18 21 -29 42 -27 55 7 48 37 115 75 166 48 66
62 115 44 168 -14 43 -47 54 -81 28z"/>
<path d="M2189 1783 c-13 -16 -12 -17 4 -4 9 7 17 15 17 17 0 8 -8 3 -21 -13z"/>
<path d="M2129 1733 l-34 -38 38 34 c34 33 42 41 34 41 -2 0 -19 -17 -38 -37z"/>
<path d="M2080 1670 c-6 -11 -8 -20 -6 -20 3 0 10 9 16 20 6 11 8 20 6 20 -3
0 -10 -9 -16 -20z"/>
<path d="M2056 1623 c-6 -14 -5 -15 5 -6 7 7 10 15 7 18 -3 3 -9 -2 -12 -12z"/>
<path d="M2016 1565 c-15 -19 -23 -35 -19 -35 4 0 18 16 31 35 29 45 22 45
-12 0z"/>
<path d="M1804 1393 l-22 -21 33 5 c19 3 44 -1 63 -11 32 -17 208 -187 228
-222 11 -17 11 -17 8 6 -3 14 0 32 5 40 9 12 14 11 40 -8 23 -16 44 -22 84
-22 47 0 57 3 71 25 12 19 14 30 7 43 -10 16 -10 16 -11 0 0 -14 -9 -18 -43
-18 -34 0 -50 6 -73 28 -44 42 -126 108 -150 120 -17 9 -29 7 -59 -8 -30 -15
-41 -17 -56 -7 -10 6 -19 15 -19 19 0 4 -17 15 -37 23 -21 9 -40 19 -43 23 -3
4 -15 -3 -26 -15z"/>
<path d="M2260 1332 c6 -13 14 -21 18 -18 3 4 -2 14 -12 24 -18 16 -18 16 -6
-6z"/>
<path d="M2280 1294 c0 -5 7 -18 15 -28 8 -11 15 -16 15 -10 0 5 -7 18 -15 28
-8 11 -15 16 -15 10z"/>
<path d="M1495 1198 l-20 -21 22 12 c23 12 40 31 26 30 -4 0 -17 -10 -28 -21z"/>
<path d="M1440 1165 c-7 -8 -8 -15 -2 -15 5 0 15 7 22 15 7 8 8 15 2 15 -5 0
-15 -7 -22 -15z"/>
<path d="M1423 465 c0 -22 2 -30 4 -17 2 12 2 30 0 40 -3 9 -5 -1 -4 -23z"/>
<path d="M3352 110 c0 -19 2 -27 5 -17 2 9 2 25 0 35 -3 9 -5 1 -5 -18z"/>
</g>
</svg>
